<svg width="49" height="50" viewBox="0 0 49 50" fill="none" xmlns="http://www.w3.org/2000/svg">
<path fill-rule="evenodd" clip-rule="evenodd" d="M48.5 26.0447V9.12607C48.5 4.45427 44.7125 0.666748 40.0407 0.666748C31.5227 0.666748 16.9772 0.666748 8.4592 0.666748C3.7874 0.666748 -0.00012207 4.45427 -0.00012207 9.12607V40.7076C-0.00012207 45.3794 3.7874 49.1669 8.4592 49.1669H25.3779C26.3118 49.1669 27.0697 48.4089 27.0697 47.475C27.0697 46.5411 26.3118 45.7831 25.3779 45.7831H8.4592C5.65522 45.7831 3.38361 43.5115 3.38361 40.7076V9.12607C3.38361 6.32209 5.65522 4.05048 8.4592 4.05048H40.0407C42.8447 4.05048 45.1163 6.32209 45.1163 9.12607V26.0447C45.1163 26.9786 45.8742 27.7366 46.8081 27.7366C47.7421 27.7366 48.5 26.9786 48.5 26.0447Z" fill="#F78223"/>
<path fill-rule="evenodd" clip-rule="evenodd" d="M46.8081 11.9458H1.69174C0.757833 11.9458 -0.00012207 12.7038 -0.00012207 13.6377C-0.00012207 14.5716 0.757833 15.3295 1.69174 15.3295H46.8081C47.7421 15.3295 48.5 14.5716 48.5 13.6377C48.5 12.7038 47.7421 11.9458 46.8081 11.9458Z" fill="#F78223"/>
<path d="M25.9419 9.69C26.8763 9.69 27.6337 8.93253 27.6337 7.99814C27.6337 7.06375 26.8763 6.30627 25.9419 6.30627C25.0075 6.30627 24.25 7.06375 24.25 7.99814C24.25 8.93253 25.0075 9.69 25.9419 9.69Z" fill="#F78223"/>
<path d="M32.1454 9.69C33.0797 9.69 33.8372 8.93253 33.8372 7.99814C33.8372 7.06375 33.0797 6.30627 32.1454 6.30627C31.211 6.30627 30.4535 7.06375 30.4535 7.99814C30.4535 8.93253 31.211 9.69 32.1454 9.69Z" fill="#F78223"/>
<path d="M38.3487 9.69C39.2831 9.69 40.0406 8.93253 40.0406 7.99814C40.0406 7.06375 39.2831 6.30627 38.3487 6.30627C37.4143 6.30627 36.6569 7.06375 36.6569 7.99814C36.6569 8.93253 37.4143 9.69 38.3487 9.69Z" fill="#F78223"/>
<path fill-rule="evenodd" clip-rule="evenodd" d="M33.2732 22.097C26.7359 22.097 21.4302 27.4027 21.4302 33.9401C21.4302 40.4775 26.7359 45.7832 33.2732 45.7832C39.8106 45.7832 45.1163 40.4775 45.1163 33.9401C45.1163 27.4027 39.8106 22.097 33.2732 22.097ZM33.2732 25.4808C37.9428 25.4808 41.7326 29.2706 41.7326 33.9401C41.7326 38.6096 37.9428 42.3994 33.2732 42.3994C28.6037 42.3994 24.8139 38.6096 24.8139 33.9401C24.8139 29.2706 28.6037 25.4808 33.2732 25.4808Z" fill="#F78223"/>
<path fill-rule="evenodd" clip-rule="evenodd" d="M39.973 43.0311L45.6126 48.6706C46.2713 49.3316 47.345 49.3316 48.0037 48.6706C48.6647 48.0119 48.6647 46.9381 48.0037 46.2794L42.3642 40.6399C41.7055 39.9789 40.6317 39.9789 39.973 40.6399C39.3121 41.2986 39.3121 42.3724 39.973 43.0311Z" fill="#F78223"/>
</svg>
