<svg width="39" height="39" viewBox="0 0 39 39" fill="none" xmlns="http://www.w3.org/2000/svg">
<path d="M18.1101 30.508C18.2926 30.6905 18.5093 30.8353 18.7478 30.9341C18.9863 31.0329 19.2419 31.0837 19.5 31.0837C19.7581 31.0837 20.0137 31.0329 20.2522 30.9341C20.4907 30.8353 20.7073 30.6905 20.8899 30.508L28.3022 23.0956C28.6708 22.727 28.8779 22.2271 28.8779 21.7058C28.8779 21.1845 28.6708 20.6846 28.3022 20.316C27.9336 19.9474 27.4337 19.7403 26.9124 19.7403C26.3911 19.7403 25.8912 19.9474 25.5226 20.316L21.4655 24.373V2.91132C21.4655 2.39003 21.2584 1.89009 20.8898 1.52149C20.5212 1.15288 20.0213 0.945801 19.5 0.945801C18.9787 0.945801 18.4788 1.15288 18.1102 1.52149C17.7416 1.89009 17.5345 2.39003 17.5345 2.91132V24.373L13.4774 20.316C13.1088 19.9474 12.6089 19.7403 12.0876 19.7403C11.5663 19.7403 11.0664 19.9474 10.6978 20.316C10.3291 20.6846 10.1221 21.1845 10.1221 21.7058C10.1221 22.2271 10.3291 22.727 10.6978 23.0956L18.1101 30.508Z" fill="#F78223"/>
<path d="M36.5345 17.9802C36.0132 17.9802 35.5133 18.1873 35.1447 18.5559C34.776 18.9245 34.569 19.4245 34.569 19.9457V35.0147H4.43103V19.9457C4.43103 19.4245 4.22395 18.9245 3.85535 18.5559C3.48674 18.1873 2.9868 17.9802 2.46552 17.9802C1.94423 17.9802 1.44429 18.1873 1.07569 18.5559C0.707081 18.9245 0.5 19.4245 0.5 19.9457V35.6699C0.5 36.5387 0.845134 37.3719 1.45948 37.9863C2.07382 38.6006 2.90705 38.9457 3.77586 38.9457H35.2241C36.0929 38.9457 36.9262 38.6006 37.5405 37.9863C38.1549 37.3719 38.5 36.5387 38.5 35.6699V19.9457C38.5 19.4245 38.2929 18.9245 37.9243 18.5559C37.5557 18.1873 37.0558 17.9802 36.5345 17.9802Z" fill="#F78223"/>
</svg>
