<svg width="48" height="55" viewBox="0 0 48 55" fill="none" xmlns="http://www.w3.org/2000/svg">
<path fill-rule="evenodd" clip-rule="evenodd" d="M18.7716 37.9573C17.7721 37.9573 16.9625 37.1475 16.9625 36.1481V5.6105C16.9625 4.61118 17.772 3.80137 18.7716 3.80137H28.9508C29.4313 3.80137 29.8932 3.99256 30.2314 4.33077C30.5698 4.66913 30.76 5.12863 30.76 5.60881V12.3967C30.76 15.1451 32.9873 17.3736 35.737 17.3736H42.5232C43.0035 17.3736 43.465 17.5647 43.803 17.9031L43.8036 17.9037C44.1418 18.242 44.3322 18.7015 44.3322 19.1827V36.1481C44.3322 36.6295 44.1418 37.0889 43.8036 37.4272L43.8031 37.4277C43.465 37.7662 43.0034 37.9573 42.5232 37.9573H18.7716ZM13.7947 36.1481C13.7947 38.8964 16.022 41.1251 18.7716 41.1251H42.5232C43.8412 41.1251 45.11 40.6018 46.0444 39.6664C46.978 38.7323 47.5 37.4666 47.5 36.1481V19.1827C47.5 17.8643 46.978 16.5987 46.0444 15.6646C45.11 14.7289 43.8411 14.2058 42.5232 14.2058H35.737C34.7373 14.2058 33.9278 13.396 33.9278 12.3967V5.60881C33.9278 4.29074 33.4054 3.02484 32.4714 2.0908C31.5372 1.15661 30.2688 0.633568 28.9508 0.633568H18.7716C16.0221 0.633568 13.7947 2.8621 13.7947 5.6105V36.1481Z" fill="#F78223"/>
<path fill-rule="evenodd" clip-rule="evenodd" d="M11.9856 44.7435C10.986 44.7435 10.1764 43.9336 10.1764 42.9342V12.3966C10.1764 11.9154 10.3668 11.456 10.705 11.1177L10.7057 11.117C11.0437 10.7786 11.5052 10.5875 11.9856 10.5875H13.7947V36.1482C13.7947 37.4664 14.3166 38.7321 15.2504 39.6662C15.2505 39.6663 15.2507 39.6665 15.2508 39.6666C16.1852 40.6021 17.4539 41.1251 18.7716 41.1251H37.5461V42.9342C37.5461 43.9336 36.7365 44.7435 35.737 44.7435H11.9856ZM7.00864 42.9342C7.00864 45.6826 9.23591 47.9113 11.9856 47.9113H35.737C38.4866 47.9113 40.7139 45.6826 40.7139 42.9342V39.5412C40.7139 38.6664 40.0048 37.9573 39.13 37.9573H18.7716C18.2913 37.9573 17.8298 37.7662 17.492 37.4279L17.4911 37.4269C17.1528 37.0888 16.9625 36.6294 16.9625 36.1482V9.0036C16.9625 8.12884 16.2534 7.4197 15.3786 7.4197H11.9856C10.6678 7.4197 9.39938 7.94257 8.46502 8.87778C7.53084 9.81196 7.00864 11.0779 7.00864 12.3966V42.9342Z" fill="#F78223"/>
<path fill-rule="evenodd" clip-rule="evenodd" d="M5.19934 51.5296C4.1998 51.5296 3.39021 50.7197 3.39021 49.7203V19.1827C3.39021 18.7015 3.58057 18.242 3.91876 17.9038L3.91932 17.9032C4.25745 17.5647 4.71897 17.3736 5.19934 17.3736H7.00847V42.9343C7.00847 44.2525 7.53034 45.5182 8.46413 46.4523C8.46428 46.4524 8.46444 46.4526 8.46459 46.4527C9.39895 47.3882 10.6677 47.9112 11.9854 47.9112H30.7599V49.7203C30.7599 50.7197 29.9503 51.5296 28.9508 51.5296H5.19934ZM0.222412 49.7203C0.222412 52.4687 2.44969 54.6974 5.19934 54.6974H28.9508C31.7004 54.6974 33.9277 52.4687 33.9277 49.7203V46.3273C33.9277 45.4525 33.2186 44.7434 32.3438 44.7434H11.9854C11.5051 44.7434 11.0436 44.5523 10.7058 44.214L10.7048 44.2131C10.3666 43.8749 10.1763 43.4155 10.1763 42.9343V15.7897C10.1763 14.9149 9.46714 14.2058 8.59237 14.2058H5.19934C3.88125 14.2058 2.61252 14.729 1.67804 15.6645C0.744391 16.5986 0.222412 17.8643 0.222412 19.1827V49.7203Z" fill="#F78223"/>
<path fill-rule="evenodd" clip-rule="evenodd" d="M45.916 20.7667C46.7908 20.7667 47.4999 20.0576 47.4999 19.1828C47.4999 19.1823 47.4999 19.1817 47.4999 19.1811M45.916 20.7667C45.0413 20.7667 44.3321 20.0576 44.3321 19.1828L45.916 20.7667ZM44.3321 19.1828C44.3321 19.1823 44.3321 19.1817 44.3321 19.1811V19.1828ZM44.3321 19.1793C44.3316 18.6998 44.1416 18.2411 43.8038 17.9032C43.8037 17.9031 43.8037 17.9031 43.8036 17.903C43.4652 17.5648 43.0034 17.3737 42.523 17.3737H35.7369C32.9872 17.3737 30.7599 15.145 30.7599 12.3967V5.60891C30.7599 5.12876 30.5697 4.66926 30.2312 4.33077L30.2312 4.33068C29.8931 3.99257 29.4313 3.80136 28.9508 3.80136C28.076 3.80136 27.3669 3.09223 27.3669 2.21746C27.3669 1.3427 28.076 0.633564 28.9508 0.633564C31.5416 0.633564 34.0316 1.66259 35.8647 3.4968L35.8651 3.49722C37.098 4.73178 38.6719 6.30562 40.2466 7.88027L40.2499 7.88363C41.8253 9.45895 43.4013 11.0348 44.6359 12.2712C44.6361 12.2713 44.6362 12.2715 44.6363 12.2716C46.466 14.1026 47.4984 16.5857 47.4999 19.1769M33.9277 6.04013C35.1116 7.22535 36.5611 8.67474 38.01 10.1236C39.4592 11.5728 40.908 13.0215 42.0911 14.2059H35.7369C34.7373 14.2059 33.9277 13.396 33.9277 12.3967V6.04013Z" fill="#F78223"/>
<path fill-rule="evenodd" clip-rule="evenodd" d="M28.9508 34.339C29.4804 34.339 29.975 34.0743 30.2687 33.6337L37.0548 23.4545C37.54 22.7266 37.3433 21.7432 36.6155 21.258C35.8876 20.7728 34.9042 20.9695 34.419 21.6973L28.9508 29.8997L26.8756 26.7869C26.3903 26.059 25.4069 25.8624 24.6791 26.3476C23.9513 26.8329 23.7546 27.8163 24.2398 28.5441L27.633 33.6337C27.9267 34.0743 28.4213 34.339 28.9508 34.339Z" fill="#F78223"/>
</svg>
